<?xml version="1.0" standalone="no"?>
<!DOCTYPE svg PUBLIC "-//W3C//DTD SVG 20010904//EN"
 "http://www.w3.org/TR/2001/REC-SVG-20010904/DTD/svg10.dtd">
<svg version="1.0" xmlns="http://www.w3.org/2000/svg"
 width="2000.000000pt" height="2000.000000pt" viewBox="0 0 2000.000000 2000.000000"
 preserveAspectRatio="xMidYMid meet">
<metadata>
Created by potrace 1.14, written by Peter Selinger 2001-2017
</metadata>
<g transform="translate(0.000000,2000.000000) scale(0.100000,-0.100000)"
fill="#000000" stroke="none">
<path d="M0 10000 l0 -10000 10000 0 10000 0 0 10000 0 10000 -10000 0 -10000
0 0 -10000z m5835 2972 c340 -78 602 -230 830 -484 173 -192 302 -458 350
-722 11 -61 13 19 14 579 l1 650 1485 -1485 1485 -1485 1488 1488 1487 1487
2995 0 2995 0 -1495 -1495 -1495 -1495 1500 -1500 1500 -1500 -3000 0 -3000 0
1495 1495 1495 1495 -1498 1498 -1497 1497 0 -2994 0 -2994 -786 783 -786 782
-699 -698 -699 -699 -700 700 -700 700 -787 -787 -788 -788 -2286 0 -2286 0
-6 2252 c-4 1238 -7 2588 -7 3000 l0 749 1648 -4 1647 -3 100 -22z"/>
<path d="M7012 11224 c-6 -42 -29 -129 -51 -193 -79 -236 -184 -406 -365 -587
-222 -222 -461 -350 -773 -416 -106 -22 -125 -23 -946 -28 l-837 -5 1495
-1495 1495 -1495 0 2148 c0 1181 -1 2147 -3 2147 -1 0 -8 -34 -15 -76z"/>
</g>
</svg>
